<?xml version="1.0" standalone="no"?>
<!DOCTYPE svg PUBLIC "-//W3C//DTD SVG 20010904//EN"
 "http://www.w3.org/TR/2001/REC-SVG-20010904/DTD/svg10.dtd">
<svg version="1.0" xmlns="http://www.w3.org/2000/svg"
 width="700.000000pt" height="700.000000pt" viewBox="0 0 700.000000 700.000000"
 preserveAspectRatio="xMidYMid meet">
<metadata>
Created by potrace 1.14, written by Peter Selinger 2001-2017
</metadata>
<g transform="translate(0.000000,700.000000) scale(0.100000,-0.100000)"
fill="#000000" stroke="none">
<path d="M3473 6078 c-21 -10 -47 -69 -58 -130 -7 -39 -61 -216 -90 -298 -37
-101 -33 -203 12 -303 34 -77 34 -77 -14 -234 -31 -102 -24 -97 -133 -108
-106 -10 -234 -40 -375 -89 -246 -84 -395 -165 -660 -361 -60 -45 -139 -101
-174 -124 -77 -52 -234 -128 -238 -115 -11 33 -44 81 -66 98 -29 22 -98 29
-136 15 -30 -12 -69 -56 -77 -87 -12 -45 2 -112 30 -141 14 -15 26 -30 26 -33
0 -3 -50 -108 -111 -234 -61 -126 -133 -274 -159 -329 -26 -55 -105 -217 -174
-360 -70 -143 -155 -318 -189 -389 -148 -308 -233 -471 -244 -469 -17 4 -16
-8 3 -37 55 -82 199 -201 308 -254 63 -31 228 -93 246 -93 3 0 28 -5 55 -11
98 -22 122 -24 315 -27 127 -2 223 1 276 10 309 50 525 161 680 351 l37 45
-21 22 c-18 19 -140 262 -330 658 -33 68 -108 223 -167 344 -59 121 -129 265
-155 320 -26 55 -85 176 -129 269 -45 93 -80 171 -78 173 5 4 24 8 82 17 130
21 306 107 543 266 246 164 372 228 577 291 120 36 277 66 345 65 42 -1 43 -2
45 -36 14 -188 42 -337 91 -486 19 -59 33 -113 30 -120 -3 -8 0 -16 6 -20 9
-6 7 -163 -7 -344 -1 -25 -6 -106 -10 -180 -3 -74 -8 -157 -10 -185 -2 -27 -7
-111 -10 -185 -4 -74 -8 -164 -10 -199 -19 -329 -21 -677 -6 -745 11 -45 10
-52 -13 -86 -29 -45 -38 -101 -22 -149 15 -47 13 -93 -13 -226 -36 -183 -38
-213 -27 -425 l8 -136 -149 -1 c-266 -2 -237 4 -296 -55 l-52 -52 -71 -2 c-83
-2 -134 -23 -169 -68 -16 -21 -39 -36 -67 -43 -30 -8 -58 -27 -92 -63 -37 -38
-62 -54 -104 -66 -52 -15 -102 -51 -102 -73 0 -15 89 -16 1330 -14 1444 1
1310 0 1310 18 0 18 -49 50 -110 70 -27 9 -67 36 -102 69 -34 32 -70 57 -90
61 -18 4 -50 25 -73 50 -46 47 -86 60 -180 60 -57 0 -61 2 -86 35 -50 68 -58
70 -270 73 l-191 2 8 145 c12 220 11 226 -32 435 -20 93 -22 161 -9 210 16 56
10 98 -21 144 -16 25 -24 47 -20 59 23 70 23 376 1 752 -2 36 -7 126 -10 200
-7 147 -10 204 -20 383 -4 65 -9 141 -10 170 -15 260 -17 367 -6 367 7 0 10 8
6 19 -3 10 10 65 29 122 42 125 73 274 81 389 10 140 6 133 78 126 94 -10 173
-25 269 -52 230 -64 359 -126 614 -295 109 -73 249 -156 309 -185 95 -46 144
-62 307 -102 l28 -7 -41 -85 c-23 -47 -58 -121 -79 -165 -21 -44 -77 -161
-125 -260 -48 -99 -116 -238 -150 -310 -34 -71 -96 -200 -138 -285 -41 -85
-120 -249 -176 -365 -151 -312 -144 -300 -164 -297 -16 3 -17 0 -6 -19 24 -46
130 -152 207 -207 119 -85 251 -136 477 -184 82 -17 427 -18 530 -2 248 40
441 123 585 252 89 80 159 175 117 159 -16 -6 -16 -5 -133 238 -103 214 -200
415 -319 660 -48 99 -118 243 -155 320 -37 77 -113 234 -169 349 -55 114 -101
210 -101 213 0 3 11 18 25 34 33 39 46 90 34 133 -11 39 -61 95 -87 97 -85 6
-95 5 -125 -15 -18 -12 -40 -37 -49 -55 -9 -19 -21 -38 -25 -42 -15 -15 -204
87 -328 177 -320 233 -359 257 -550 345 -145 67 -369 137 -490 153 -22 3 -69
10 -105 15 -36 5 -68 7 -72 5 -3 -2 -9 14 -13 36 -4 22 -16 64 -26 93 -39 105
-40 132 -6 205 45 97 49 199 12 302 -15 41 -43 129 -61 195 -59 213 -62 221
-89 233 -14 7 -27 12 -28 11 -1 0 -12 -5 -24 -11z m-1855 -1760 c14 -14 -2
-48 -24 -48 -20 0 -29 27 -14 45 15 18 22 19 38 3z m3812 -19 c0 -28 -30 -36
-47 -13 -12 16 -12 20 3 31 21 15 44 6 44 -18z m-3850 -1032 l0 -882 -439 0
c-241 0 -438 2 -437 5 2 3 18 37 36 75 18 39 73 153 123 255 49 102 120 248
157 325 72 150 169 349 325 670 53 110 124 255 156 323 33 67 64 120 69 117 5
-3 9 -364 10 -888z m113 767 c25 -49 74 -150 110 -224 36 -74 106 -220 157
-325 164 -338 251 -517 315 -650 147 -305 215 -447 215 -448 0 -2 -861 0 -871
2 -5 1 -5 1737 -1 1766 3 15 26 -23 75 -121z m3794 28 c51 -104 249 -513 340
-702 36 -74 101 -208 144 -297 311 -642 318 -657 318 -668 1 -6 -151 -10 -434
-10 l-435 0 0 887 c1 691 3 886 13 882 7 -3 31 -44 54 -92z m-106 16 c3 -256
-2 -1682 -6 -1686 -6 -6 -835 -10 -852 -4 -12 4 8 51 162 367 48 99 120 248
160 330 40 83 117 240 170 350 54 110 134 277 180 370 143 297 168 345 176
345 5 0 9 -33 10 -72z"/>
</g>
</svg>
